<?xml version="1.0" encoding="utf-8"?>
<!-- Generator: Adobe Illustrator 23.0.2, SVG Export Plug-In . SVG Version: 6.00 Build 0)  -->
<svg version="1.1" id="Layer_1" focusable="false" xmlns="http://www.w3.org/2000/svg" xmlns:xlink="http://www.w3.org/1999/xlink"
	 x="0px" y="0px" viewBox="0 0 500 500" style="enable-background:new 0 0 500 500;" xml:space="preserve">
<style type="text/css">
	.st0{fill:#FFFFFF;}
	.st1{fill:#939598;stroke:#FFFFFF;stroke-width:0.9879;stroke-miterlimit:10;}
</style>
<rect class="st0" width="500" height="500"/>
<path class="st1" d="M250,5C114.7,5,5,114.7,5,250s109.7,245,245,245s245-109.7,245-245S385.3,5,250,5z M250,99.8
	c48,0,86.9,38.9,86.9,86.9S298,273.7,250,273.7s-86.9-38.9-86.9-86.9S202,99.8,250,99.8z M250,439.7c-58,0-110-26.3-144.7-67.4
	c18.6-35,54.9-59.1,97.3-59.1c2.4,0,4.7,0.4,7,1.1c12.8,4.1,26.3,6.8,40.4,6.8c14.1,0,27.7-2.7,40.4-6.8c2.3-0.7,4.6-1.1,7-1.1
	c42.4,0,78.7,24.1,97.3,59.1C360,413.4,308,439.7,250,439.7z"/>
</svg>
