<svg xmlns="http://www.w3.org/2000/svg" width="68.009" height="68.003" viewBox="0 0 68.009 68.003">
  <g id="Forma_1" data-name="Forma 1" transform="translate(-668.996 -889.995)" fill="#fff" stroke-linejoin="round">
    <path d="M 691.8948974609375 957.4979248046875 L 691.8948974609375 957.4979248046875 C 690.6431884765625 957.4979248046875 689.40966796875 957.0687255859375 688.4214477539063 956.2894897460938 C 687.4182739257813 955.4984741210938 686.7098388671875 954.3756103515625 686.4266357421875 953.1278686523438 L 681.6951293945313 932.3114013671875 L 681.4248046875 931.8780517578125 C 677.935546875 926.300537109375 676.0921020507813 919.8746337890625 676.0939331054688 913.2955932617188 C 676.0939331054688 911.0884399414063 676.5350952148438 908.9401245117188 677.4052124023438 906.9102783203125 C 679.9639282226563 900.9439086914063 685.8133544921875 897.0887451171875 692.3074340820313 897.0887451171875 C 694.50439453125 897.0887451171875 696.6504516601563 897.5311889648438 698.6861572265625 898.40380859375 C 700.0568237304688 898.9872436523438 701.5086059570313 899.2833862304688 702.9999389648438 899.2833862304688 C 704.4912109375 899.2833862304688 705.9429931640625 898.9872436523438 707.3148803710938 898.4032592773438 C 709.3433227539063 897.53369140625 711.4922485351563 897.092529296875 713.700927734375 897.092529296875 C 718.0298461914063 897.0929565429688 722.0994262695313 898.778564453125 725.1600952148438 901.8387451171875 C 728.220947265625 904.8991088867188 729.9063720703125 908.9679565429688 729.9059448242188 913.2957763671875 C 729.90869140625 919.8722534179688 728.0661010742188 926.2971801757813 724.5774536132813 931.8758544921875 L 724.307373046875 932.3086547851563 L 719.5767822265625 953.1253051757813 C 719.0687866210938 955.3557739257813 717.282958984375 957.0403442382813 715.027099609375 957.4172973632813 C 714.7198486328125 957.4684448242188 714.4075317382813 957.4943237304688 714.0985717773438 957.4943237304688 C 712.7852172851563 957.4944458007813 711.5050659179688 957.0274047851563 710.4940795898438 956.1792602539063 C 709.471435546875 955.3214111328125 708.7871704101563 954.122802734375 708.5673828125 952.8042602539063 L 705.2661743164063 933.0133056640625 C 705.1044311523438 932.0482177734375 704.3467407226563 931.2908935546875 703.380859375 931.1292114257813 C 703.253662109375 931.1078491210938 703.1246337890625 931.0970458984375 702.9971313476563 931.0970458984375 C 701.872802734375 931.0970458984375 700.9219970703125 931.9030151367188 700.7363891601563 933.0134887695313 L 697.4351806640625 952.8060913085938 C 697.06005859375 955.0637817382813 695.3746337890625 956.8505249023438 693.141357421875 957.357666015625 C 692.7310791015625 957.4507446289063 692.311767578125 957.4979248046875 691.8948974609375 957.4979248046875 Z M 692.319580078125 900.2938842773438 L 692.3043823242188 900.2939453125 C 685.1375122070313 900.3016967773438 679.3030395507813 906.134521484375 679.29443359375 913.2963256835938 C 679.2926635742188 919.274169921875 680.9677124023438 925.1141967773438 684.138671875 930.1845703125 L 684.55224609375 930.8436889648438 C 684.64794921875 930.9977416992188 684.7161254882813 931.1627197265625 684.7562255859375 931.3359985351563 L 689.54736328125 952.4158935546875 C 689.765380859375 953.3763427734375 690.5337524414063 954.1008911132813 691.5050048828125 954.2618408203125 C 691.6365966796875 954.28369140625 691.7703857421875 954.2947387695313 691.9025268554688 954.2947387695313 C 693.0852661132813 954.2947387695313 694.084228515625 953.4464111328125 694.2779541015625 952.277587890625 L 697.5792236328125 932.4842529296875 C 697.9651489257813 930.1707763671875 699.7798461914063 928.3563842773438 702.0948486328125 927.9693603515625 C 702.3963623046875 927.9190063476563 702.7030029296875 927.8934936523438 703.00634765625 927.8934936523438 C 704.291748046875 927.8934936523438 705.5448608398438 928.3507690429688 706.5347290039063 929.1810913085938 C 707.535888671875 930.0208740234375 708.2059326171875 931.1939086914063 708.4215087890625 932.484130859375 L 711.7218017578125 952.2761840820313 C 711.883544921875 953.2455444335938 712.6077270507813 954.0127563476563 713.56689453125 954.2306518554688 C 713.7439575195313 954.2708740234375 713.9246826171875 954.291259765625 714.104248046875 954.291259765625 C 715.2361450195313 954.291259765625 716.2021484375 953.5193481445313 716.453369140625 952.4140625 L 721.2431640625 931.3361206054688 L 721.2438354492188 931.3330078125 L 721.2445678710938 931.3299560546875 C 721.2863159179688 931.1566162109375 721.3541259765625 930.9934692382813 721.4461669921875 930.8450317382813 L 721.8614501953125 930.1824340820313 C 725.0321044921875 925.11328125 726.7072143554688 919.2738647460938 726.7054443359375 913.2958374023438 C 726.7054443359375 911.5255126953125 726.3517456054688 909.802490234375 725.6541137695313 908.174560546875 C 723.601318359375 903.3846435546875 718.9061889648438 900.2896728515625 713.692626953125 900.2896728515625 C 711.930908203125 900.2896728515625 710.20947265625 900.6444702148438 708.5761108398438 901.3442993164063 C 706.8029174804688 902.1004028320313 704.9270629882813 902.483642578125 702.9998779296875 902.483642578125 C 701.07275390625 902.483642578125 699.1968994140625 902.1004028320313 697.4244995117188 901.3446655273438 C 695.8009033203125 900.647216796875 694.0838012695313 900.2938842773438 692.319580078125 900.2938842773438 Z M 730.5043334960938 948.6900024414063 L 730.5042724609375 948.6900024414063 C 729.7222900390625 948.68994140625 729.0594482421875 948.12939453125 728.9282836914063 947.357177734375 C 728.6643676757813 945.7737426757813 727.4244384765625 944.5338134765625 725.842529296875 944.2701416015625 C 725.1697998046875 944.156005859375 724.6431274414063 943.6287231445313 724.5307006835938 942.957763671875 C 724.4592895507813 942.53759765625 724.5562133789063 942.1137084960938 724.8037109375 941.7651977539063 C 725.0512084960938 941.4168701171875 725.4196166992188 941.1856079101563 725.841064453125 941.1140747070313 C 727.4244384765625 940.8501586914063 728.6643676757813 939.6102294921875 728.927978515625 938.0283203125 C 729.0418701171875 937.35693359375 729.5687866210938 936.8303833007813 730.2393798828125 936.7166137695313 C 730.3280029296875 936.7015991210938 730.41845703125 936.6939086914063 730.5079956054688 936.6939086914063 C 731.2899780273438 936.6939086914063 731.9528198242188 937.2544555664063 732.0840454101563 938.0267944335938 C 732.3479614257813 939.6102294921875 733.587890625 940.8501586914063 735.1698608398438 941.11376953125 C 735.8416748046875 941.2277221679688 736.3685302734375 941.7542724609375 736.4823608398438 942.4241943359375 C 736.6287841796875 943.2947998046875 736.04052734375 944.1224365234375 735.1712646484375 944.2698974609375 C 733.5879516601563 944.5338134765625 732.3479614257813 945.7737426757813 732.0843505859375 947.3556518554688 C 731.970458984375 948.0269775390625 731.4435424804688 948.5535278320313 730.77294921875 948.6672973632813 C 730.6841430664063 948.682373046875 730.59375 948.6900024414063 730.5043334960938 948.6900024414063 Z M 729.74951171875 942.692138671875 C 730.02099609375 942.9244384765625 730.273681640625 943.1770629882813 730.50634765625 943.4486083984375 C 730.7386474609375 943.1771240234375 730.9913330078125 942.9244995117188 731.2628173828125 942.692138671875 C 730.9912109375 942.45947265625 730.7385864257813 942.206787109375 730.50634765625 941.9353637695313 C 730.2737426757813 942.2068481445313 730.0210571289063 942.4595947265625 729.74951171875 942.692138671875 Z M 684.796142578125 913.492431640625 L 684.296142578125 913.492431640625 L 682.0956420898438 913.492431640625 L 681.5956420898438 913.492431640625 L 681.5956420898438 912.992431640625 C 681.5956420898438 906.7373657226563 686.0323486328125 904.195556640625 688.3783569335938 903.7254028320313 L 688.8666381835938 903.6275634765625 L 688.9664916992188 904.1153564453125 L 689.18701171875 905.192626953125 L 689.4066162109375 906.2703857421875 L 689.5052490234375 906.7545166015625 L 689.0223388671875 906.8589477539063 C 688.8497924804688 906.896240234375 684.796142578125 907.8319091796875 684.796142578125 912.992431640625 L 684.796142578125 913.492431640625 Z M 693.5999145507813 906.8900146484375 L 693.0999145507813 906.8900146484375 L 690.9003295898438 906.8900146484375 L 690.4003295898438 906.8900146484375 L 690.4003295898438 906.3900146484375 L 690.4003295898438 904.1904296875 L 690.4003295898438 903.6904296875 L 690.9003295898438 903.6904296875 L 693.0999145507813 903.6904296875 L 693.5999145507813 903.6904296875 L 693.5999145507813 904.1904296875 L 693.5999145507813 906.3900146484375 L 693.5999145507813 906.8900146484375 Z M 675.4921875 902.4912109375 L 675.4921264648438 902.4912109375 C 674.7097778320313 902.4910888671875 674.0468139648438 901.9305419921875 673.9157104492188 901.1583251953125 C 673.6520385742188 899.5757446289063 672.4119873046875 898.3357543945313 670.8297729492188 898.0712890625 C 670.1585693359375 897.9574584960938 669.6319580078125 897.430908203125 669.518310546875 896.7608642578125 C 669.370849609375 895.8914794921875 669.9586181640625 895.06396484375 670.8284912109375 894.9161987304688 C 672.411865234375 894.6514892578125 673.6519165039063 893.4111938476563 673.9154663085938 891.8295288085938 C 674.0296020507813 891.1580810546875 674.5565185546875 890.6315307617188 675.2269287109375 890.517822265625 C 675.3157348632813 890.5028076171875 675.4061889648438 890.4951171875 675.4957275390625 890.4951171875 C 676.277587890625 890.4951171875 676.9403076171875 891.0556640625 677.071533203125 891.8280029296875 C 677.33544921875 893.4111938476563 678.5755004882813 894.6514892578125 680.1575927734375 894.9159545898438 C 680.829345703125 895.0299072265625 681.3562622070313 895.5564575195313 681.4699096679688 896.2263793945313 C 681.6163330078125 897.09765625 681.02783203125 897.9248657226563 680.1580810546875 898.0711669921875 C 678.575439453125 898.3357543945313 677.3353271484375 899.5757446289063 677.0718383789063 901.1568603515625 C 676.9577026367188 901.8296508789063 676.4307861328125 902.3562622070313 675.7603759765625 902.4686279296875 C 675.6721801757813 902.4835815429688 675.5817260742188 902.4912109375 675.4921875 902.4912109375 Z M 674.7371215820313 896.493408203125 C 675.0084838867188 896.7256469726563 675.26123046875 896.978271484375 675.4938354492188 897.2498168945313 C 675.7261962890625 896.9783325195313 675.9788208007813 896.7257080078125 676.250244140625 896.493408203125 C 675.978515625 896.2608032226563 675.7259521484375 896.0082397460938 675.4938354492188 895.7372436523438 C 675.261474609375 896.00830078125 675.0087280273438 896.2608642578125 674.7371215820313 896.493408203125 Z" stroke="none"/>
    <path d="M 691.8948974609375 956.9979248046875 C 692.26953125 956.9979248046875 692.6498413085938 956.9564819335938 693.0306396484375 956.8701171875 C 695.0556030273438 956.4102172851563 696.601806640625 954.7713012695313 696.9420166015625 952.7238159179688 L 700.2432250976563 932.9310302734375 C 700.4717407226563 931.5640258789063 701.6561889648438 930.5970458984375 702.9971313476563 930.5970458984375 C 703.1508178710938 930.5970458984375 703.3068237304688 930.6097412109375 703.4634399414063 930.6360473632813 C 704.640625 930.8331298828125 705.5621948242188 931.7546997070313 705.7593383789063 932.9310302734375 L 709.060546875 952.7220458984375 C 709.4775390625 955.2232666015625 711.6439208984375 956.9944458007813 714.0985107421875 956.9943237304688 C 714.3775024414063 956.9943237304688 714.6604614257813 956.971435546875 714.9447021484375 956.9241333007813 C 716.9913330078125 956.5821533203125 718.62841796875 955.0377197265625 719.0892333984375 953.0145263671875 L 723.8385009765625 932.1156005859375 L 724.1535034179688 931.6107177734375 C 727.587890625 926.118896484375 729.4086303710938 919.7720947265625 729.4059448242188 913.2957153320313 C 729.4067993164063 904.6233520507813 722.3751220703125 897.5934448242188 713.700927734375 897.592529296875 C 711.5733032226563 897.592529296875 709.4673461914063 898.0245361328125 707.5107421875 898.8633422851563 C 706.06982421875 899.4766845703125 704.5348510742188 899.7833862304688 702.9999389648438 899.7833862304688 C 701.4649658203125 899.7833862304688 699.9299926757813 899.4766845703125 698.4891357421875 898.8633422851563 C 696.4707641601563 897.9981689453125 694.3726806640625 897.5887451171875 692.3074340820313 897.5887451171875 C 686.2152099609375 897.5887451171875 680.4175415039063 901.15478515625 677.86474609375 907.1072998046875 C 677.0267944335938 909.0621337890625 676.5939331054688 911.167236328125 676.5939331054688 913.2957153320313 C 676.5921020507813 919.7730102539063 678.412841796875 926.1207275390625 681.8489990234375 931.6134033203125 L 682.1640014648438 932.1183471679688 L 686.9142456054688 953.0172119140625 C 687.4524536132813 955.3887939453125 689.5606079101563 956.9978637695313 691.8948974609375 956.9979248046875 M 692.319580078125 899.7938842773438 C 694.142578125 899.7938842773438 695.9463500976563 900.16552734375 697.62060546875 900.8847045898438 C 699.3387451171875 901.6173095703125 701.1693115234375 901.983642578125 702.9999389648438 901.983642578125 C 704.8305053710938 901.983642578125 706.6611328125 901.6173095703125 708.3792114257813 900.8847045898438 C 710.1141967773438 900.141357421875 711.9174194335938 899.7896728515625 713.692626953125 899.7896728515625 C 718.9326782226563 899.7896728515625 723.9194946289063 902.8577270507813 726.1137084960938 907.9776000976563 C 726.833740234375 909.6578979492188 727.2054443359375 911.4678344726563 727.2054443359375 913.2957153320313 C 727.2072143554688 919.3616943359375 725.501708984375 925.3052978515625 722.2850952148438 930.4479370117188 L 721.87109375 931.1085205078125 C 721.8063354492188 931.2129516601563 721.759521484375 931.3272094726563 721.730712890625 931.4468994140625 L 716.94091796875 952.52490234375 C 716.6339111328125 953.87548828125 715.4332885742188 954.791259765625 714.104248046875 954.791259765625 C 713.8904418945313 954.791259765625 713.67333984375 954.767578125 713.4561157226563 954.7182006835938 C 712.30322265625 954.456298828125 711.4230346679688 953.52392578125 711.2286376953125 952.3583984375 L 707.9283447265625 932.5665283203125 C 707.5203247070313 930.1243286132813 705.4038696289063 928.3934936523438 703.00634765625 928.3934936523438 C 702.7329711914063 928.3934936523438 702.4558715820313 928.416015625 702.1773071289063 928.4625244140625 C 700.0722045898438 928.814453125 698.4234008789063 930.4623413085938 698.0723876953125 932.5665283203125 L 694.771240234375 952.3593139648438 C 694.5350952148438 953.7840576171875 693.3008422851563 954.7947387695313 691.9025268554688 954.7947387695313 C 691.7444458007813 954.7947387695313 691.5842895507813 954.7817993164063 691.4232177734375 954.755126953125 C 690.2559204101563 954.5616455078125 689.3217163085938 953.6805419921875 689.059814453125 952.5267333984375 L 684.2691040039063 931.44873046875 C 684.2412109375 931.328125 684.1935424804688 931.2138061523438 684.1287231445313 931.1094360351563 L 683.7147216796875 930.44970703125 C 680.4981079101563 925.3062133789063 678.7926025390625 919.3616943359375 678.79443359375 913.2957153320313 C 678.8034057617188 905.8419189453125 684.8450927734375 899.802001953125 692.2998046875 899.7939453125 C 692.306396484375 899.7938842773438 692.3130493164063 899.7938842773438 692.319580078125 899.7938842773438 M 730.5043334960938 948.1900024414063 C 730.5653686523438 948.1900024414063 730.6271362304688 948.1848754882813 730.6893310546875 948.17431640625 C 731.1510009765625 948.0960083007813 731.5128173828125 947.735107421875 731.5911254882813 947.2734375 C 731.889892578125 945.4806518554688 733.2947998046875 944.0757446289063 735.087646484375 943.7769165039063 C 735.68701171875 943.6752319335938 736.0902099609375 943.1072998046875 735.9894409179688 942.5079345703125 C 735.9111328125 942.047119140625 735.54931640625 941.685302734375 735.087646484375 941.6069946289063 C 733.2947998046875 941.3082275390625 731.889892578125 939.9033203125 731.5911254882813 938.1105346679688 C 731.5 937.5741577148438 731.034423828125 937.1939086914063 730.5079956054688 937.1939086914063 C 730.4469604492188 937.1939086914063 730.3851318359375 937.1990356445313 730.322998046875 937.2095947265625 C 729.861328125 937.2879028320313 729.49951171875 937.6488037109375 729.4212036132813 938.1105346679688 C 729.1224365234375 939.9033203125 727.717529296875 941.3082275390625 725.9247436523438 941.6069946289063 C 725.3253173828125 941.708740234375 724.922119140625 942.276611328125 725.0238037109375 942.8751220703125 C 725.1011962890625 943.3368530273438 725.4630126953125 943.6986083984375 725.9247436523438 943.7769165039063 C 727.717529296875 944.0757446289063 729.1224365234375 945.4806518554688 729.4212036132813 947.2734375 C 729.5123291015625 947.8097534179688 729.9779052734375 948.18994140625 730.5043334960938 948.1900024414063 M 730.506591796875 941.1210327148438 C 730.9349975585938 941.731201171875 731.4669189453125 942.2631225585938 732.0770874023438 942.6924438476563 C 731.4669189453125 943.120849609375 730.9349975585938 943.6527099609375 730.506591796875 944.262939453125 C 730.0773315429688 943.6527099609375 729.54541015625 943.120849609375 728.9352416992188 942.6924438476563 C 729.54541015625 942.2631225585938 730.0773315429688 941.731201171875 730.506591796875 941.1210327148438 M 684.296142578125 912.992431640625 C 684.296142578125 907.4151000976563 688.7294921875 906.4107055664063 688.9166870117188 906.3702392578125 L 688.6971435546875 905.2929077148438 L 688.4766235351563 904.2156372070313 C 686.276123046875 904.6566162109375 682.0956420898438 907.0587158203125 682.0956420898438 912.992431640625 L 684.296142578125 912.992431640625 M 693.0999145507813 906.3900146484375 L 693.0999145507813 904.1904296875 L 690.9003295898438 904.1904296875 L 690.9003295898438 906.3900146484375 L 693.0999145507813 906.3900146484375 M 675.4921875 901.9912109375 C 675.5534057617188 901.9912109375 675.6153564453125 901.986083984375 675.677734375 901.9755249023438 C 676.139404296875 901.8981323242188 676.5003051757813 901.5363159179688 676.57861328125 901.0746459960938 C 676.87744140625 899.2817993164063 678.2822875976563 897.8778076171875 680.0751342773438 897.578125 C 680.6744995117188 897.477294921875 681.0776977539063 896.909423828125 680.9769287109375 896.3099975585938 C 680.8986206054688 895.8483276367188 680.5368041992188 895.4874267578125 680.0751342773438 895.4091186523438 C 678.2822875976563 895.1094360351563 676.87744140625 893.7045288085938 676.57861328125 891.9117431640625 C 676.4874877929688 891.3753662109375 676.0226440429688 890.9951171875 675.4957275390625 890.9951171875 C 675.4346923828125 890.9951171875 675.372802734375 891.000244140625 675.310546875 891.0108032226563 C 674.8488159179688 891.089111328125 674.4869995117188 891.450927734375 674.40869140625 891.9117431640625 C 674.1099243164063 893.7045288085938 672.7050170898438 895.1094360351563 670.9122314453125 895.4091186523438 C 670.313720703125 895.5108032226563 669.9096069335938 896.0778198242188 670.0112915039063 896.67724609375 C 670.089599609375 897.138916015625 670.4505004882813 897.4998168945313 670.9122314453125 897.578125 C 672.7050170898438 897.8778076171875 674.1099243164063 899.2817993164063 674.40869140625 901.0746459960938 C 674.4998168945313 901.6116333007813 674.9652709960938 901.9911499023438 675.4921875 901.9912109375 M 675.494140625 894.923095703125 C 675.9225463867188 895.5333251953125 676.4544067382813 896.0643310546875 677.0646362304688 896.49365234375 C 676.4544067382813 896.9219970703125 675.9225463867188 897.4539184570313 675.494140625 898.0641479492188 C 675.0648193359375 897.4539184570313 674.5328979492188 896.9219970703125 673.9227294921875 896.49365234375 C 674.5328979492188 896.0643310546875 675.0648193359375 895.5333251953125 675.494140625 894.923095703125 M 691.8948974609375 957.9979248046875 C 691.8948974609375 957.9979248046875 691.8948974609375 957.9979248046875 691.8948974609375 957.9979248046875 C 690.5313720703125 957.9978637695313 689.1878662109375 957.5305786132813 688.1118774414063 956.68212890625 C 687.0191040039063 955.8204345703125 686.2474365234375 954.5974731445313 685.9390258789063 953.238525390625 L 681.2262573242188 932.5045166015625 L 681.0005493164063 932.1427001953125 C 677.4618530273438 926.486083984375 675.592041015625 919.9684448242188 675.5939331054688 913.29541015625 C 675.5939331054688 911.0203857421875 676.0487060546875 908.8057250976563 676.9456176757813 906.7133178710938 C 679.5833129882813 900.5628051757813 685.6130981445313 896.5887451171875 692.3074340820313 896.5887451171875 C 694.5724487304688 896.5887451171875 696.7848510742188 897.0447998046875 698.8831176757813 897.9442138671875 C 700.1904296875 898.5006713867188 701.5762939453125 898.7833862304688 702.9999389648438 898.7833862304688 C 704.423583984375 898.7833862304688 705.8094482421875 898.5006713867188 707.1190795898438 897.9432373046875 C 709.2089233398438 897.0473022460938 711.4241333007813 896.592529296875 713.700927734375 896.592529296875 C 715.9558715820313 896.5927734375 718.1437377929688 897.03466796875 720.2039184570313 897.9059448242188 C 722.193359375 898.7473754882813 723.9797973632813 899.9515991210938 725.5136108398438 901.4851684570313 C 727.0475463867188 903.018798828125 728.2518920898438 904.8049926757813 729.0932006835938 906.7940063476563 C 729.9644775390625 908.8538818359375 730.4061889648438 911.0413818359375 730.4059448242188 913.2958374023438 C 730.40869140625 919.9659423828125 728.5398559570313 926.482666015625 725.0013427734375 932.1409301757813 L 724.7762451171875 932.5017700195313 L 720.0643920898438 953.2361450195313 C 719.5110473632813 955.6653442382813 717.5662231445313 957.4999389648438 715.1094970703125 957.9104614257813 C 714.77490234375 957.9661254882813 714.4349975585938 957.9943237304688 714.0985717773438 957.9943237304688 C 712.6678466796875 957.9944458007813 711.2736206054688 957.48583984375 710.1727294921875 956.5623168945313 C 709.058837890625 955.6279296875 708.3135375976563 954.3224487304688 708.0741577148438 952.886474609375 L 704.77294921875 933.0955810546875 C 704.6465454101563 932.3411865234375 704.0538940429688 931.7488403320313 703.29833984375 931.622314453125 C 703.1981811523438 931.6055297851563 703.0969848632813 931.5970458984375 702.9971313476563 931.5970458984375 C 702.1181030273438 931.5970458984375 701.374755859375 932.2274169921875 701.2295532226563 933.0958862304688 L 697.9284057617188 952.8883666992188 C 697.5198974609375 955.346923828125 695.6842651367188 957.2929077148438 693.2521362304688 957.8452758789063 C 692.805419921875 957.9465942382813 692.3489379882813 957.9979248046875 691.8948974609375 957.9979248046875 Z M 692.319580078125 900.7938842773438 L 692.3088989257813 900.7938842773438 C 692.3062133789063 900.7939453125 692.3035888671875 900.7939453125 692.3009033203125 900.7939453125 C 685.4130859375 900.8013916015625 679.802734375 906.4102172851563 679.79443359375 913.2969360351563 C 679.7926635742188 919.1803588867188 681.4414672851563 924.9287109375 684.5625610351563 929.9194946289063 L 684.9757690429688 930.577880859375 C 685.1016845703125 930.7806396484375 685.19091796875 930.9964599609375 685.243408203125 931.2233276367188 L 690.0349731445313 952.3051147460938 C 690.2078247070313 953.066650390625 690.81689453125 953.6409912109375 691.5867309570313 953.7686157226563 C 691.6914672851563 953.7859497070313 691.7976684570313 953.7947387695313 691.9025268554688 953.7947387695313 C 692.839599609375 953.7947387695313 693.6311645507813 953.122314453125 693.78466796875 952.19580078125 L 697.0859985351563 932.4020385742188 C 697.507080078125 929.8779296875 699.48681640625 927.8984375 702.0123901367188 927.4761962890625 C 702.3411865234375 927.4213256835938 702.6754760742188 927.3934936523438 703.00634765625 927.3934936523438 C 704.4090576171875 927.3934936523438 705.7763061523438 927.8922729492188 706.8560791015625 928.7980346679688 C 707.9484252929688 929.7142944335938 708.6795043945313 930.9940795898438 708.9146728515625 932.4017333984375 L 712.2150268554688 952.1939086914063 C 712.3431396484375 952.9622192382813 712.9172973632813 953.5703125 713.6776733398438 953.7430419921875 C 713.8184814453125 953.7750854492188 713.9619750976563 953.791259765625 714.104248046875 953.791259765625 C 714.9868774414063 953.791259765625 715.769775390625 953.1654663085938 715.9657592773438 952.3032836914063 L 720.7555541992188 931.2252807617188 C 720.7565307617188 931.22119140625 720.7575073242188 931.217041015625 720.7584838867188 931.2129516601563 C 720.8126220703125 930.98779296875 720.9010620117188 930.7753295898438 721.021240234375 930.58154296875 L 721.437744140625 929.9168701171875 C 724.558349609375 924.927734375 726.2071533203125 919.1800537109375 726.2054443359375 913.2960205078125 C 726.2054443359375 911.5936279296875 725.8653564453125 909.9368286132813 725.1945190429688 908.3714599609375 C 723.2206420898438 903.7656860351563 718.7058715820313 900.7896728515625 713.692626953125 900.7896728515625 C 711.9990234375 900.7896728515625 710.3438110351563 901.130859375 708.7730102539063 901.8038940429688 C 706.9367065429688 902.5869140625 704.994873046875 902.983642578125 702.9998779296875 902.983642578125 C 701.0050048828125 902.983642578125 699.0631713867188 902.5869140625 697.2283935546875 901.8045654296875 C 695.666259765625 901.1336059570313 694.0155639648438 900.7938842773438 692.319580078125 900.7938842773438 Z M 730.5043334960938 949.1900024414063 C 730.5042724609375 949.1900024414063 730.5042724609375 949.1900024414063 730.5042114257813 949.1900024414063 C 729.4776000976563 949.1898803710938 728.6074829101563 948.4542846679688 728.4353637695313 947.44091796875 C 728.206298828125 946.066650390625 727.1315307617188 944.9918823242188 725.7603149414063 944.7633056640625 C 724.8764038085938 944.6134033203125 724.1851806640625 943.9212036132813 724.03759765625 943.0404052734375 C 723.9439697265625 942.4896240234375 724.0711669921875 941.93310546875 724.3961181640625 941.4757080078125 C 724.7208862304688 941.0184936523438 725.204345703125 940.7149658203125 725.7574462890625 940.62109375 C 727.1315307617188 940.39208984375 728.206298828125 939.3173217773438 728.434814453125 937.9461669921875 C 728.5844116210938 937.0640258789063 729.2758178710938 936.3729248046875 730.15576171875 936.2236938476563 C 730.2718505859375 936.2039794921875 730.3904418945313 936.1939086914063 730.5079956054688 936.1939086914063 C 731.53466796875 936.1939086914063 732.40478515625 936.9295654296875 732.5770263671875 937.9430541992188 C 732.8060302734375 939.3173217773438 733.8807983398438 940.39208984375 735.2520141601563 940.62060546875 C 736.134521484375 940.770263671875 736.825927734375 941.4612426757813 736.9752807617188 942.3404541015625 C 737.16748046875 943.4833984375 736.3955688476563 944.5693359375 735.2548828125 944.7628173828125 C 733.880859375 944.9918823242188 732.8060302734375 946.066650390625 732.5775146484375 947.4378051757813 C 732.4279174804688 948.3199462890625 731.7365112304688 949.010986328125 730.8565673828125 949.1602172851563 C 730.7402954101563 949.1799926757813 730.6217041015625 949.1900024414063 730.5043334960938 949.1900024414063 Z M 684.296142578125 913.992431640625 L 682.0956420898438 913.992431640625 C 681.5433349609375 913.992431640625 681.0956420898438 913.5447387695313 681.0956420898438 912.992431640625 C 681.0956420898438 906.4132690429688 685.795166015625 903.7330932617188 688.2801513671875 903.235107421875 C 688.346435546875 903.2218627929688 688.4125366210938 903.2154541015625 688.4776611328125 903.2154541015625 C 688.9429321289063 903.2154541015625 689.3594360351563 903.5418701171875 689.456298828125 904.0150756835938 L 689.6768188476563 905.0923461914063 L 689.8965454101563 906.1705322265625 C 689.8978881835938 906.1770629882813 689.8991088867188 906.1835327148438 689.9003295898438 906.1900634765625 L 689.9003295898438 904.1904296875 C 689.9003295898438 903.6381225585938 690.3480224609375 903.1904296875 690.9003295898438 903.1904296875 L 693.0999145507813 903.1904296875 C 693.6522216796875 903.1904296875 694.0999145507813 903.6381225585938 694.0999145507813 904.1904296875 L 694.0999145507813 906.3900146484375 C 694.0999145507813 906.9423217773438 693.6522216796875 907.3900146484375 693.0999145507813 907.3900146484375 L 690.9003295898438 907.3900146484375 C 690.3882446289063 907.3900146484375 689.9660034179688 907.0050659179688 689.9072875976563 906.5087890625 C 689.850830078125 906.91259765625 689.5490112304688 907.2566528320313 689.1279907226563 907.34765625 C 688.9715576171875 907.3814697265625 685.296142578125 908.2307739257813 685.296142578125 912.992431640625 C 685.296142578125 913.5447387695313 684.8484497070313 913.992431640625 684.296142578125 913.992431640625 Z M 675.4921875 902.9912109375 C 675.4921264648438 902.9912109375 675.4921264648438 902.9912109375 675.4920654296875 902.9912109375 C 674.4650268554688 902.9910888671875 673.5947875976563 902.2554321289063 673.4227905273438 901.241943359375 C 673.1939086914063 899.8685302734375 672.1189575195313 898.793701171875 670.7473754882813 898.564453125 C 669.8656005859375 898.4149169921875 669.174560546875 897.723876953125 669.025390625 896.844482421875 C 668.831787109375 895.703369140625 669.6030883789063 894.6171875 670.7447509765625 894.4232177734375 C 672.1188354492188 894.1935424804688 673.19384765625 893.1183471679688 673.4223022460938 891.7473754882813 C 673.5722045898438 890.8650512695313 674.263671875 890.174072265625 675.143310546875 890.02490234375 C 675.2596435546875 890.005126953125 675.3782348632813 889.9951171875 675.4957275390625 889.9951171875 C 676.5222778320313 889.9951171875 677.3922729492188 890.7307739257813 677.5645141601563 891.7442626953125 C 677.7935180664063 893.1183471679688 678.8685302734375 894.1935424804688 680.239990234375 894.4227905273438 C 681.122314453125 894.5724487304688 681.813720703125 895.2634887695313 681.9628295898438 896.1427612304688 C 682.1551513671875 897.2865600585938 681.3826293945313 898.3721923828125 680.2410278320313 898.5642700195313 C 678.868408203125 898.793701171875 677.79345703125 899.8685302734375 677.5650024414063 901.2390747070313 C 677.4150390625 902.123046875 676.7232666015625 902.814208984375 675.8430786132813 902.9617919921875 C 675.7281494140625 902.981201171875 675.6095581054688 902.9912109375 675.4921875 902.9912109375 Z" stroke="none" fill="#d1d1d1"/>
  </g>
</svg>
